# MagicaVoxel @ Ephtracy

# group
o 

# material
mtllib berd.mtl
usemtl palette

# normals
vn -1 0 0
vn 1 0 0
vn 0 0 1
vn 0 0 -1
vn 0 -1 0
vn 0 1 0

# texcoords
vt 0.970703 0.5
vt 0.974609 0.5
vt 0.978516 0.5

# verts
v 0.6 2 -1
v 0.6 2 -1.1
v 0.6 2.1 -1
v 0.6 2.1 -1.1
v 0.6 2.4 -0.8
v 0.6 2.4 -1.1
v 0.6 2.5 -1
v 0.6 2.5 -1.1
v 0.6 2.6 -0.8
v 0.6 2.6 -1
v 0.7 2 -0.9
v 0.7 2 -1
v 0.7 2 -1.1
v 0.7 2 -1.2
v 0.7 2.1 -0.9
v 0.7 2.1 -1
v 0.7 2.1 -1.1
v 0.7 2.1 -1.2
v 0.7 2.3 -0.7
v 0.7 2.3 -1
v 0.7 2.3 -1.1
v 0.7 2.3 -1.2
v 0.7 2.4 -0.8
v 0.7 2.4 -1.1
v 0.7 2.5 -1
v 0.7 2.5 -1.1
v 0.7 2.6 -0.8
v 0.7 2.6 -1
v 0.7 2.7 -0.7
v 0.7 2.7 -1.2
v 0.8 2.5 -1.2
v 0.8 2.5 -1.4
v 0.8 2.6 -0.5
v 0.8 2.6 -0.7
v 0.8 2.6 -1.2
v 0.8 2.6 -1.4
v 0.8 2.7 -0.5
v 0.8 2.7 -0.6
v 0.8 2.7 -0.7
v 0.8 2.7 -0.8
v 0.8 2.8 -0.5
v 0.8 2.8 -0.6
v 0.8 2.9 -0.5
v 0.8 2.9 -0.8
v 0.9 2.4 -1.2
v 0.9 2.4 -1.3
v 0.9 2.5 -1.2
v 0.9 2.5 -1.3
v 0.9 2.6 -0.4
v 0.9 2.6 -0.5
v 0.9 2.7 -0.4
v 0.9 2.7 -0.5
v 1 2 -1
v 1 2 -1.1
v 1 2.1 -1
v 1 2.1 -1.1
v 1.1 2 -0.9
v 1.1 2 -1
v 1.1 2 -1.1
v 1.1 2 -1.2
v 1.1 2.1 -0.9
v 1.1 2.1 -1
v 1.1 2.1 -1.1
v 1.1 2.1 -1.2
v 1.1 2.3 -1
v 1.1 2.3 -1.1
v 0.8 2 -0.9
v 0.8 2 -1
v 0.8 2 -1.1
v 0.8 2 -1.2
v 0.8 2.1 -0.9
v 0.8 2.1 -1
v 0.8 2.1 -1.1
v 0.8 2.1 -1.2
v 0.8 2.3 -1
v 0.8 2.3 -1.1
v 0.9 2 -1
v 0.9 2 -1.1
v 0.9 2.1 -1
v 0.9 2.1 -1.1
v 1 2.4 -1.2
v 1 2.4 -1.3
v 1 2.5 -1.2
v 1 2.5 -1.3
v 1 2.6 -0.4
v 1 2.6 -0.5
v 1 2.7 -0.4
v 1 2.7 -0.5
v 1.1 2.5 -1.2
v 1.1 2.5 -1.4
v 1.1 2.6 -0.5
v 1.1 2.6 -0.7
v 1.1 2.6 -1.2
v 1.1 2.6 -1.4
v 1.1 2.7 -0.5
v 1.1 2.7 -0.6
v 1.1 2.7 -0.7
v 1.1 2.7 -0.8
v 1.1 2.8 -0.5
v 1.1 2.8 -0.6
v 1.1 2.9 -0.5
v 1.1 2.9 -0.8
v 1.2 2 -0.9
v 1.2 2 -1
v 1.2 2 -1.1
v 1.2 2 -1.2
v 1.2 2.1 -0.9
v 1.2 2.1 -1
v 1.2 2.1 -1.1
v 1.2 2.1 -1.2
v 1.2 2.3 -0.7
v 1.2 2.3 -1
v 1.2 2.3 -1.1
v 1.2 2.3 -1.2
v 1.2 2.4 -0.8
v 1.2 2.4 -1.1
v 1.2 2.5 -1
v 1.2 2.5 -1.1
v 1.2 2.6 -0.8
v 1.2 2.6 -1
v 1.2 2.7 -0.7
v 1.2 2.7 -1.2
v 1.3 2 -1
v 1.3 2 -1.1
v 1.3 2.1 -1
v 1.3 2.1 -1.1
v 1.3 2.4 -0.8
v 1.3 2.4 -1.1
v 1.3 2.5 -1
v 1.3 2.5 -1.1
v 1.3 2.6 -0.8
v 1.3 2.6 -1
v 0.9 2.6 -0.4
v 0.9 2.7 -0.4
v 1 2.6 -0.4
v 1 2.7 -0.4
v 0.8 2.6 -0.5
v 0.8 2.7 -0.5
v 0.8 2.8 -0.5
v 0.8 2.9 -0.5
v 0.9 2.6 -0.5
v 0.9 2.7 -0.5
v 0.9 2.8 -0.5
v 1 2.6 -0.5
v 1 2.7 -0.5
v 1 2.8 -0.5
v 1.1 2.6 -0.5
v 1.1 2.7 -0.5
v 1.1 2.8 -0.5
v 1.1 2.9 -0.5
v 0.7 2.3 -0.7
v 0.7 2.7 -0.7
v 0.8 2.6 -0.7
v 0.8 2.7 -0.7
v 1.1 2.6 -0.7
v 1.1 2.7 -0.7
v 1.2 2.3 -0.7
v 1.2 2.7 -0.7
v 0.6 2.4 -0.8
v 0.6 2.6 -0.8
v 0.7 2.4 -0.8
v 0.7 2.6 -0.8
v 1.2 2.4 -0.8
v 1.2 2.6 -0.8
v 1.3 2.4 -0.8
v 1.3 2.6 -0.8
v 0.7 2 -0.9
v 0.7 2.1 -0.9
v 0.8 2 -0.9
v 0.8 2.1 -0.9
v 1.1 2 -0.9
v 1.1 2.1 -0.9
v 1.2 2 -0.9
v 1.2 2.1 -0.9
v 0.6 2 -1
v 0.6 2.1 -1
v 0.7 2 -1
v 0.7 2.1 -1
v 0.7 2.3 -1
v 0.8 2 -1
v 0.8 2.1 -1
v 0.8 2.3 -1
v 0.9 2 -1
v 0.9 2.1 -1
v 1 2 -1
v 1 2.1 -1
v 1.1 2 -1
v 1.1 2.1 -1
v 1.1 2.3 -1
v 1.2 2 -1
v 1.2 2.1 -1
v 1.2 2.3 -1
v 1.3 2 -1
v 1.3 2.1 -1
v 0.8 2.7 -0.8
v 0.8 2.9 -0.8
v 1.1 2.7 -0.8
v 1.1 2.9 -0.8
v 0.6 2.5 -1
v 0.6 2.6 -1
v 0.7 2.5 -1
v 0.7 2.6 -1
v 1.2 2.5 -1
v 1.2 2.6 -1
v 1.3 2.5 -1
v 1.3 2.6 -1
v 0.6 2 -1.1
v 0.6 2.1 -1.1
v 0.6 2.4 -1.1
v 0.6 2.5 -1.1
v 0.7 2 -1.1
v 0.7 2.1 -1.1
v 0.7 2.3 -1.1
v 0.7 2.4 -1.1
v 0.7 2.5 -1.1
v 0.8 2 -1.1
v 0.8 2.1 -1.1
v 0.8 2.3 -1.1
v 0.9 2 -1.1
v 0.9 2.1 -1.1
v 1 2 -1.1
v 1 2.1 -1.1
v 1.1 2 -1.1
v 1.1 2.1 -1.1
v 1.1 2.3 -1.1
v 1.2 2 -1.1
v 1.2 2.1 -1.1
v 1.2 2.3 -1.1
v 1.2 2.4 -1.1
v 1.2 2.5 -1.1
v 1.3 2 -1.1
v 1.3 2.1 -1.1
v 1.3 2.4 -1.1
v 1.3 2.5 -1.1
v 0.7 2 -1.2
v 0.7 2.1 -1.2
v 0.7 2.3 -1.2
v 0.7 2.7 -1.2
v 0.8 2 -1.2
v 0.8 2.1 -1.2
v 0.8 2.5 -1.2
v 0.8 2.6 -1.2
v 0.9 2.4 -1.2
v 0.9 2.5 -1.2
v 1 2.4 -1.2
v 1 2.5 -1.2
v 1.1 2 -1.2
v 1.1 2.1 -1.2
v 1.1 2.5 -1.2
v 1.1 2.6 -1.2
v 1.2 2 -1.2
v 1.2 2.1 -1.2
v 1.2 2.3 -1.2
v 1.2 2.7 -1.2
v 0.9 2.4 -1.3
v 0.9 2.5 -1.3
v 1 2.4 -1.3
v 1 2.5 -1.3
v 0.8 2.5 -1.4
v 0.8 2.6 -1.4
v 1.1 2.5 -1.4
v 1.1 2.6 -1.4
v 0.7 2 -0.9
v 0.8 2 -0.9
v 1.1 2 -0.9
v 1.2 2 -0.9
v 0.6 2 -1
v 0.7 2 -1
v 0.8 2 -1
v 0.9 2 -1
v 1 2 -1
v 1.1 2 -1
v 1.2 2 -1
v 1.3 2 -1
v 0.6 2 -1.1
v 0.7 2 -1.1
v 0.8 2 -1.1
v 0.9 2 -1.1
v 1 2 -1.1
v 1.1 2 -1.1
v 1.2 2 -1.1
v 1.3 2 -1.1
v 0.7 2 -1.2
v 0.8 2 -1.2
v 1.1 2 -1.2
v 1.2 2 -1.2
v 0.7 2.3 -0.7
v 1.2 2.3 -0.7
v 0.7 2.3 -1
v 0.8 2.3 -1
v 1.1 2.3 -1
v 1.2 2.3 -1
v 0.7 2.3 -1.1
v 0.8 2.3 -1.1
v 1.1 2.3 -1.1
v 1.2 2.3 -1.1
v 0.7 2.3 -1.2
v 1.2 2.3 -1.2
v 0.6 2.4 -0.8
v 0.7 2.4 -0.8
v 1.2 2.4 -0.8
v 1.3 2.4 -0.8
v 0.6 2.4 -1.1
v 0.7 2.4 -1.1
v 1.2 2.4 -1.1
v 1.3 2.4 -1.1
v 0.9 2.4 -1.2
v 1 2.4 -1.2
v 0.9 2.4 -1.3
v 1 2.4 -1.3
v 0.8 2.5 -1.2
v 0.9 2.5 -1.2
v 1 2.5 -1.2
v 1.1 2.5 -1.2
v 0.9 2.5 -1.3
v 1 2.5 -1.3
v 0.8 2.5 -1.4
v 1.1 2.5 -1.4
v 0.9 2.6 -0.4
v 1 2.6 -0.4
v 0.8 2.6 -0.5
v 0.9 2.6 -0.5
v 1 2.6 -0.5
v 1.1 2.6 -0.5
v 0.8 2.6 -0.7
v 1.1 2.6 -0.7
v 0.7 2.1 -0.9
v 0.8 2.1 -0.9
v 1.1 2.1 -0.9
v 1.2 2.1 -0.9
v 0.6 2.1 -1
v 0.7 2.1 -1
v 0.8 2.1 -1
v 0.9 2.1 -1
v 1 2.1 -1
v 1.1 2.1 -1
v 1.2 2.1 -1
v 1.3 2.1 -1
v 0.6 2.1 -1.1
v 0.7 2.1 -1.1
v 0.8 2.1 -1.1
v 0.9 2.1 -1.1
v 1 2.1 -1.1
v 1.1 2.1 -1.1
v 1.2 2.1 -1.1
v 1.3 2.1 -1.1
v 0.7 2.1 -1.2
v 0.8 2.1 -1.2
v 1.1 2.1 -1.2
v 1.2 2.1 -1.2
v 0.6 2.5 -1
v 0.7 2.5 -1
v 1.2 2.5 -1
v 1.3 2.5 -1
v 0.6 2.5 -1.1
v 0.7 2.5 -1.1
v 1.2 2.5 -1.1
v 1.3 2.5 -1.1
v 0.6 2.6 -0.8
v 0.7 2.6 -0.8
v 1.2 2.6 -0.8
v 1.3 2.6 -0.8
v 0.6 2.6 -1
v 0.7 2.6 -1
v 1.2 2.6 -1
v 1.3 2.6 -1
v 0.8 2.6 -1.2
v 1.1 2.6 -1.2
v 0.8 2.6 -1.4
v 1.1 2.6 -1.4
v 0.9 2.7 -0.4
v 1 2.7 -0.4
v 0.9 2.7 -0.5
v 1 2.7 -0.5
v 0.7 2.7 -0.7
v 0.8 2.7 -0.7
v 1.1 2.7 -0.7
v 1.2 2.7 -0.7
v 0.8 2.7 -0.8
v 1.1 2.7 -0.8
v 0.7 2.7 -1.2
v 1.2 2.7 -1.2
v 0.8 2.9 -0.5
v 1.1 2.9 -0.5
v 0.8 2.9 -0.8
v 1.1 2.9 -0.8

# faces
f 3/1/1 2/1/1 1/1/1
f 4/1/1 2/1/1 3/1/1
f 7/2/1 6/2/1 5/2/1
f 8/2/1 6/2/1 7/2/1
f 9/2/1 7/2/1 5/2/1
f 10/2/1 7/2/1 9/2/1
f 15/1/1 12/1/1 11/1/1
f 16/1/1 12/1/1 15/1/1
f 17/1/1 14/1/1 13/1/1
f 18/1/1 14/1/1 17/1/1
f 20/1/1 17/1/1 16/1/1
f 21/1/1 17/1/1 20/1/1
f 23/2/1 20/2/1 19/2/1
f 23/2/1 22/2/1 21/2/1
f 23/2/1 21/2/1 20/2/1
f 24/2/1 22/2/1 23/2/1
f 26/2/1 22/2/1 24/2/1
f 27/2/1 23/2/1 19/2/1
f 28/2/1 26/2/1 25/2/1
f 29/2/1 27/2/1 19/2/1
f 29/2/1 28/2/1 27/2/1
f 30/2/1 26/2/1 28/2/1
f 30/2/1 28/2/1 29/2/1
f 30/2/1 22/2/1 26/2/1
f 35/2/1 32/2/1 31/2/1
f 36/2/1 32/2/1 35/2/1
f 37/2/1 34/2/1 33/2/1
f 38/2/1 34/2/1 37/2/1
f 39/2/1 34/2/1 38/2/1
f 41/3/1 38/3/1 37/3/1
f 42/2/1 40/2/1 39/2/1
f 42/3/1 38/3/1 41/3/1
f 42/2/1 39/2/1 38/2/1
f 43/2/1 42/2/1 41/2/1
f 44/2/1 40/2/1 42/2/1
f 44/2/1 42/2/1 43/2/1
f 47/2/1 46/2/1 45/2/1
f 48/2/1 46/2/1 47/2/1
f 51/1/1 50/1/1 49/1/1
f 52/1/1 50/1/1 51/1/1
f 55/1/1 54/1/1 53/1/1
f 56/1/1 54/1/1 55/1/1
f 61/1/1 58/1/1 57/1/1
f 62/1/1 58/1/1 61/1/1
f 63/1/1 60/1/1 59/1/1
f 64/1/1 60/1/1 63/1/1
f 65/1/1 63/1/1 62/1/1
f 66/1/1 63/1/1 65/1/1
f 67/1/2 68/1/2 71/1/2
f 71/1/2 68/1/2 72/1/2
f 69/1/2 70/1/2 73/1/2
f 73/1/2 70/1/2 74/1/2
f 72/1/2 73/1/2 75/1/2
f 75/1/2 73/1/2 76/1/2
f 77/1/2 78/1/2 79/1/2
f 79/1/2 78/1/2 80/1/2
f 81/2/2 82/2/2 83/2/2
f 83/2/2 82/2/2 84/2/2
f 85/1/2 86/1/2 87/1/2
f 87/1/2 86/1/2 88/1/2
f 89/2/2 90/2/2 93/2/2
f 93/2/2 90/2/2 94/2/2
f 91/2/2 92/2/2 95/2/2
f 95/2/2 92/2/2 96/2/2
f 96/2/2 92/2/2 97/2/2
f 95/3/2 96/3/2 99/3/2
f 97/2/2 98/2/2 100/2/2
f 99/3/2 96/3/2 100/3/2
f 96/2/2 97/2/2 100/2/2
f 99/2/2 100/2/2 101/2/2
f 100/2/2 98/2/2 102/2/2
f 101/2/2 100/2/2 102/2/2
f 103/1/2 104/1/2 107/1/2
f 107/1/2 104/1/2 108/1/2
f 105/1/2 106/1/2 109/1/2
f 109/1/2 106/1/2 110/1/2
f 108/1/2 109/1/2 112/1/2
f 112/1/2 109/1/2 113/1/2
f 111/2/2 112/2/2 115/2/2
f 113/2/2 114/2/2 115/2/2
f 112/2/2 113/2/2 115/2/2
f 115/2/2 114/2/2 116/2/2
f 116/2/2 114/2/2 118/2/2
f 111/2/2 115/2/2 119/2/2
f 117/2/2 118/2/2 120/2/2
f 111/2/2 119/2/2 121/2/2
f 119/2/2 120/2/2 121/2/2
f 120/2/2 118/2/2 122/2/2
f 121/2/2 120/2/2 122/2/2
f 118/2/2 114/2/2 122/2/2
f 123/1/2 124/1/2 125/1/2
f 125/1/2 124/1/2 126/1/2
f 127/2/2 128/2/2 129/2/2
f 129/2/2 128/2/2 130/2/2
f 127/2/2 129/2/2 131/2/2
f 131/2/2 129/2/2 132/2/2
f 135/1/3 134/1/3 133/1/3
f 136/1/3 134/1/3 135/1/3
f 141/2/3 138/2/3 137/2/3
f 142/3/3 139/3/3 138/3/3
f 142/2/3 138/2/3 141/2/3
f 143/2/3 140/2/3 139/2/3
f 143/3/3 139/3/3 142/3/3
f 145/2/3 143/2/3 142/2/3
f 146/2/3 140/2/3 143/2/3
f 146/2/3 143/2/3 145/2/3
f 147/2/3 145/2/3 144/2/3
f 148/3/3 146/3/3 145/3/3
f 148/2/3 145/2/3 147/2/3
f 149/2/3 140/2/3 146/2/3
f 149/3/3 146/3/3 148/3/3
f 150/2/3 140/2/3 149/2/3
f 153/2/3 152/2/3 151/2/3
f 154/2/3 152/2/3 153/2/3
f 155/2/3 153/2/3 151/2/3
f 157/2/3 155/2/3 151/2/3
f 157/2/3 156/2/3 155/2/3
f 158/2/3 156/2/3 157/2/3
f 161/2/3 160/2/3 159/2/3
f 162/2/3 160/2/3 161/2/3
f 165/2/3 164/2/3 163/2/3
f 166/2/3 164/2/3 165/2/3
f 169/1/3 168/1/3 167/1/3
f 170/1/3 168/1/3 169/1/3
f 173/1/3 172/1/3 171/1/3
f 174/1/3 172/1/3 173/1/3
f 177/1/3 176/1/3 175/1/3
f 178/1/3 176/1/3 177/1/3
f 181/1/3 179/1/3 178/1/3
f 182/1/3 179/1/3 181/1/3
f 183/1/3 181/1/3 180/1/3
f 184/1/3 181/1/3 183/1/3
f 187/1/3 186/1/3 185/1/3
f 188/1/3 186/1/3 187/1/3
f 191/1/3 189/1/3 188/1/3
f 192/1/3 189/1/3 191/1/3
f 193/1/3 191/1/3 190/1/3
f 194/1/3 191/1/3 193/1/3
f 195/2/4 196/2/4 197/2/4
f 197/2/4 196/2/4 198/2/4
f 199/2/4 200/2/4 201/2/4
f 201/2/4 200/2/4 202/2/4
f 203/2/4 204/2/4 205/2/4
f 205/2/4 204/2/4 206/2/4
f 207/1/4 208/1/4 211/1/4
f 211/1/4 208/1/4 212/1/4
f 209/2/4 210/2/4 214/2/4
f 214/2/4 210/2/4 215/2/4
f 212/1/4 213/1/4 217/1/4
f 217/1/4 213/1/4 218/1/4
f 216/1/4 217/1/4 219/1/4
f 219/1/4 217/1/4 220/1/4
f 221/1/4 222/1/4 223/1/4
f 223/1/4 222/1/4 224/1/4
f 224/1/4 225/1/4 227/1/4
f 227/1/4 225/1/4 228/1/4
f 226/1/4 227/1/4 231/1/4
f 231/1/4 227/1/4 232/1/4
f 229/2/4 230/2/4 233/2/4
f 233/2/4 230/2/4 234/2/4
f 235/1/4 236/1/4 239/1/4
f 239/1/4 236/1/4 240/1/4
f 237/2/4 238/2/4 241/2/4
f 241/2/4 238/2/4 242/2/4
f 237/2/4 241/2/4 243/2/4
f 243/2/4 241/2/4 244/2/4
f 237/2/4 243/2/4 245/2/4
f 245/2/4 246/2/4 249/2/4
f 242/2/4 238/2/4 250/2/4
f 247/1/4 248/1/4 251/1/4
f 251/1/4 248/1/4 252/1/4
f 245/2/4 249/2/4 253/2/4
f 249/2/4 250/2/4 253/2/4
f 237/2/4 245/2/4 253/2/4
f 250/2/4 238/2/4 254/2/4
f 253/2/4 250/2/4 254/2/4
f 255/2/4 256/2/4 257/2/4
f 257/2/4 256/2/4 258/2/4
f 259/2/4 260/2/4 261/2/4
f 261/2/4 260/2/4 262/2/4
f 268/1/5 264/1/5 263/1/5
f 269/1/5 264/1/5 268/1/5
f 272/1/5 266/1/5 265/1/5
f 273/1/5 266/1/5 272/1/5
f 275/1/5 270/1/5 269/1/5
f 275/1/5 268/1/5 267/1/5
f 275/1/5 269/1/5 268/1/5
f 276/1/5 270/1/5 275/1/5
f 277/1/5 270/1/5 276/1/5
f 278/1/5 270/1/5 277/1/5
f 279/1/5 274/1/5 273/1/5
f 279/1/5 273/1/5 272/1/5
f 279/1/5 272/1/5 271/1/5
f 280/1/5 274/1/5 279/1/5
f 281/1/5 274/1/5 280/1/5
f 282/1/5 274/1/5 281/1/5
f 283/1/5 277/1/5 276/1/5
f 284/1/5 277/1/5 283/1/5
f 285/1/5 281/1/5 280/1/5
f 286/1/5 281/1/5 285/1/5
f 289/2/5 288/2/5 287/2/5
f 290/2/5 288/2/5 289/2/5
f 291/2/5 288/2/5 290/2/5
f 292/2/5 288/2/5 291/2/5
f 294/2/5 291/2/5 290/2/5
f 295/2/5 291/2/5 294/2/5
f 297/2/5 294/2/5 293/2/5
f 297/2/5 296/2/5 295/2/5
f 297/2/5 295/2/5 294/2/5
f 298/2/5 296/2/5 297/2/5
f 303/2/5 300/2/5 299/2/5
f 304/2/5 300/2/5 303/2/5
f 305/2/5 302/2/5 301/2/5
f 306/2/5 302/2/5 305/2/5
f 309/2/5 308/2/5 307/2/5
f 310/2/5 308/2/5 309/2/5
f 315/2/5 312/2/5 311/2/5
f 316/2/5 314/2/5 313/2/5
f 317/2/5 315/2/5 311/2/5
f 317/2/5 316/2/5 315/2/5
f 318/2/5 314/2/5 316/2/5
f 318/2/5 316/2/5 317/2/5
f 322/1/5 320/1/5 319/1/5
f 323/1/5 320/1/5 322/1/5
f 325/2/5 322/2/5 321/2/5
f 325/2/5 324/2/5 323/2/5
f 325/2/5 323/2/5 322/2/5
f 326/2/5 324/2/5 325/2/5
f 327/1/6 328/1/6 332/1/6
f 332/1/6 328/1/6 333/1/6
f 329/1/6 330/1/6 336/1/6
f 336/1/6 330/1/6 337/1/6
f 331/1/6 332/1/6 339/1/6
f 339/1/6 332/1/6 340/1/6
f 333/1/6 334/1/6 341/1/6
f 341/1/6 334/1/6 342/1/6
f 335/1/6 336/1/6 343/1/6
f 343/1/6 336/1/6 344/1/6
f 337/1/6 338/1/6 345/1/6
f 345/1/6 338/1/6 346/1/6
f 340/1/6 341/1/6 347/1/6
f 347/1/6 341/1/6 348/1/6
f 344/1/6 345/1/6 349/1/6
f 349/1/6 345/1/6 350/1/6
f 351/2/6 352/2/6 355/2/6
f 355/2/6 352/2/6 356/2/6
f 353/2/6 354/2/6 357/2/6
f 357/2/6 354/2/6 358/2/6
f 359/2/6 360/2/6 363/2/6
f 363/2/6 360/2/6 364/2/6
f 361/2/6 362/2/6 365/2/6
f 365/2/6 362/2/6 366/2/6
f 367/2/6 368/2/6 369/2/6
f 369/2/6 368/2/6 370/2/6
f 371/1/6 372/1/6 373/1/6
f 373/1/6 372/1/6 374/1/6
f 375/2/6 376/2/6 379/2/6
f 377/2/6 378/2/6 380/2/6
f 375/2/6 379/2/6 381/2/6
f 379/2/6 380/2/6 381/2/6
f 380/2/6 378/2/6 382/2/6
f 381/2/6 380/2/6 382/2/6
f 383/2/6 384/2/6 385/2/6
f 385/2/6 384/2/6 386/2/6
