# MagicaVoxel @ Ephtracy

# group
o 

# material
mtllib grave.mtl
usemtl palette

# normals
vn -1 0 0
vn 1 0 0
vn 0 0 1
vn 0 0 -1
vn 0 -1 0
vn 0 1 0

# texcoords
vt 0.970703 0.5
vt 0.974609 0.5
vt 0.978516 0.5

# verts
v 0 2.8 0
v 0 2.8 -1.3
v 0 2.8 -1.4
v 0 2.8 -1.5
v 0 2.9 0
v 0 2.9 -1.3
v 0 3.6 -1.4
v 0 3.6 -1.5
v 0.1 2.9 -0.1
v 0.1 2.9 -1.2
v 0.1 3 -0.1
v 0.1 3 -1.2
v 0.1 3.6 -1.4
v 0.1 3.6 -1.5
v 0.1 3.7 -1.4
v 0.1 3.7 -1.5
v 0.2 3.7 -1.4
v 0.2 3.7 -1.5
v 0.2 3.8 -1.4
v 0.2 3.8 -1.5
v 0.4 3.7 -1.4
v 0.4 3.7 -1.5
v 0.4 3.8 -1.4
v 0.4 3.8 -1.5
v 0.5 2.9 -0.1
v 0.5 2.9 -1.2
v 0.5 3 -0.1
v 0.5 3 -1.2
v 0.5 3.6 -1.4
v 0.5 3.6 -1.5
v 0.5 3.7 -1.4
v 0.5 3.7 -1.5
v 0.6 2.8 0
v 0.6 2.8 -1.3
v 0.6 2.8 -1.4
v 0.6 2.8 -1.5
v 0.6 2.9 0
v 0.6 2.9 -1.3
v 0.6 3.6 -1.4
v 0.6 3.6 -1.5
v 0 2.8 0
v 0 2.9 0
v 0.6 2.8 0
v 0.6 2.9 0
v 0.1 2.9 -0.1
v 0.1 3 -0.1
v 0.5 2.9 -0.1
v 0.5 3 -0.1
v 0 2.8 -1.4
v 0 3.6 -1.4
v 0.1 3.1 -1.4
v 0.1 3.2 -1.4
v 0.1 3.6 -1.4
v 0.1 3.7 -1.4
v 0.2 3.3 -1.4
v 0.2 3.4 -1.4
v 0.2 3.7 -1.4
v 0.2 3.8 -1.4
v 0.4 3.3 -1.4
v 0.4 3.4 -1.4
v 0.4 3.7 -1.4
v 0.4 3.8 -1.4
v 0.5 3.1 -1.4
v 0.5 3.2 -1.4
v 0.5 3.6 -1.4
v 0.5 3.7 -1.4
v 0.6 2.8 -1.4
v 0.6 3.6 -1.4
v 0.1 2.9 -1.2
v 0.1 3 -1.2
v 0.5 2.9 -1.2
v 0.5 3 -1.2
v 0 2.8 -1.3
v 0 2.9 -1.3
v 0.6 2.8 -1.3
v 0.6 2.9 -1.3
v 0 2.8 -1.5
v 0 3.6 -1.5
v 0.1 3.1 -1.5
v 0.1 3.2 -1.5
v 0.1 3.6 -1.5
v 0.1 3.7 -1.5
v 0.2 3.3 -1.5
v 0.2 3.4 -1.5
v 0.2 3.7 -1.5
v 0.2 3.8 -1.5
v 0.4 3.3 -1.5
v 0.4 3.4 -1.5
v 0.4 3.7 -1.5
v 0.4 3.8 -1.5
v 0.5 3.1 -1.5
v 0.5 3.2 -1.5
v 0.5 3.6 -1.5
v 0.5 3.7 -1.5
v 0.6 2.8 -1.5
v 0.6 3.6 -1.5
v 0 2.8 0
v 0.6 2.8 0
v 0 2.8 -1.3
v 0.6 2.8 -1.3
v 0 2.8 -1.4
v 0.6 2.8 -1.4
v 0 2.8 -1.5
v 0.6 2.8 -1.5
v 0 2.9 0
v 0.6 2.9 0
v 0.1 2.9 -0.1
v 0.5 2.9 -0.1
v 0.1 2.9 -1.2
v 0.5 2.9 -1.2
v 0 2.9 -1.3
v 0.6 2.9 -1.3
v 0.1 3 -0.1
v 0.5 3 -0.1
v 0.1 3 -1.2
v 0.5 3 -1.2
v 0 3.6 -1.4
v 0.1 3.6 -1.4
v 0.5 3.6 -1.4
v 0.6 3.6 -1.4
v 0 3.6 -1.5
v 0.1 3.6 -1.5
v 0.5 3.6 -1.5
v 0.6 3.6 -1.5
v 0.1 3.7 -1.4
v 0.2 3.7 -1.4
v 0.4 3.7 -1.4
v 0.5 3.7 -1.4
v 0.1 3.7 -1.5
v 0.2 3.7 -1.5
v 0.4 3.7 -1.5
v 0.5 3.7 -1.5
v 0.2 3.8 -1.4
v 0.4 3.8 -1.4
v 0.2 3.8 -1.5
v 0.4 3.8 -1.5

# faces
f 5/2/1 2/2/1 1/2/1
f 6/2/1 2/2/1 5/2/1
f 7/1/1 4/1/1 3/1/1
f 8/1/1 4/1/1 7/1/1
f 11/2/1 10/2/1 9/2/1
f 12/2/1 10/2/1 11/2/1
f 15/1/1 14/1/1 13/1/1
f 16/1/1 14/1/1 15/1/1
f 19/1/1 18/1/1 17/1/1
f 20/1/1 18/1/1 19/1/1
f 21/1/2 22/1/2 23/1/2
f 23/1/2 22/1/2 24/1/2
f 25/2/2 26/2/2 27/2/2
f 27/2/2 26/2/2 28/2/2
f 29/1/2 30/1/2 31/1/2
f 31/1/2 30/1/2 32/1/2
f 33/2/2 34/2/2 37/2/2
f 37/2/2 34/2/2 38/2/2
f 35/1/2 36/1/2 39/1/2
f 39/1/2 36/1/2 40/1/2
f 43/2/3 42/2/3 41/2/3
f 44/2/3 42/2/3 43/2/3
f 47/2/3 46/2/3 45/2/3
f 48/2/3 46/2/3 47/2/3
f 51/1/3 50/1/3 49/1/3
f 52/1/3 50/1/3 51/1/3
f 53/1/3 50/1/3 52/1/3
f 55/1/3 53/1/3 52/1/3
f 55/1/3 54/1/3 53/1/3
f 56/1/3 54/1/3 55/1/3
f 57/1/3 54/1/3 56/1/3
f 59/1/3 55/1/3 52/1/3
f 59/3/3 56/3/3 55/3/3
f 60/1/3 58/1/3 57/1/3
f 60/3/3 56/3/3 59/3/3
f 60/1/3 57/1/3 56/1/3
f 61/1/3 58/1/3 60/1/3
f 62/1/3 58/1/3 61/1/3
f 63/1/3 51/1/3 49/1/3
f 63/3/3 52/3/3 51/3/3
f 64/1/3 61/1/3 60/1/3
f 64/3/3 52/3/3 63/3/3
f 64/1/3 59/1/3 52/1/3
f 64/1/3 60/1/3 59/1/3
f 65/1/3 61/1/3 64/1/3
f 66/1/3 61/1/3 65/1/3
f 67/1/3 63/1/3 49/1/3
f 67/1/3 64/1/3 63/1/3
f 67/1/3 65/1/3 64/1/3
f 68/1/3 65/1/3 67/1/3
f 69/2/4 70/2/4 71/2/4
f 71/2/4 70/2/4 72/2/4
f 73/2/4 74/2/4 75/2/4
f 75/2/4 74/2/4 76/2/4
f 77/1/4 78/1/4 79/1/4
f 79/1/4 78/1/4 80/1/4
f 80/1/4 78/1/4 81/1/4
f 80/1/4 81/1/4 83/1/4
f 81/1/4 82/1/4 83/1/4
f 83/1/4 82/1/4 84/1/4
f 84/1/4 82/1/4 85/1/4
f 80/1/4 83/1/4 87/1/4
f 83/3/4 84/3/4 87/3/4
f 85/1/4 86/1/4 88/1/4
f 87/3/4 84/3/4 88/3/4
f 84/1/4 85/1/4 88/1/4
f 88/1/4 86/1/4 89/1/4
f 89/1/4 86/1/4 90/1/4
f 77/1/4 79/1/4 91/1/4
f 79/3/4 80/3/4 91/3/4
f 88/1/4 89/1/4 92/1/4
f 91/3/4 80/3/4 92/3/4
f 80/1/4 87/1/4 92/1/4
f 87/1/4 88/1/4 92/1/4
f 92/1/4 89/1/4 93/1/4
f 93/1/4 89/1/4 94/1/4
f 77/1/4 91/1/4 95/1/4
f 91/1/4 92/1/4 95/1/4
f 92/1/4 93/1/4 95/1/4
f 95/1/4 93/1/4 96/1/4
f 99/2/5 98/2/5 97/2/5
f 100/2/5 98/2/5 99/2/5
f 103/1/5 102/1/5 101/1/5
f 104/1/5 102/1/5 103/1/5
f 105/2/6 106/2/6 107/2/6
f 107/2/6 106/2/6 108/2/6
f 105/2/6 107/2/6 109/2/6
f 108/2/6 106/2/6 110/2/6
f 105/2/6 109/2/6 111/2/6
f 109/2/6 110/2/6 111/2/6
f 110/2/6 106/2/6 112/2/6
f 111/2/6 110/2/6 112/2/6
f 113/2/6 114/2/6 115/2/6
f 115/2/6 114/2/6 116/2/6
f 117/1/6 118/1/6 121/1/6
f 121/1/6 118/1/6 122/1/6
f 119/1/6 120/1/6 123/1/6
f 123/1/6 120/1/6 124/1/6
f 125/1/6 126/1/6 129/1/6
f 129/1/6 126/1/6 130/1/6
f 127/1/6 128/1/6 131/1/6
f 131/1/6 128/1/6 132/1/6
f 133/1/6 134/1/6 135/1/6
f 135/1/6 134/1/6 136/1/6
